<svg id="图层_1" data-name="图层 1" xmlns="http://www.w3.org/2000/svg" viewBox="0 0 502.04 497.54"><defs><style>.cls-1,.cls-2{fill:none;stroke-miterlimit:10;stroke-width:4px;}.cls-1{stroke:#000;}.cls-2{stroke:red;}.cls-3{font-size:30px;}.cls-3,.cls-4,.cls-5{font-family:AdobeSongStd-Light-GBpc-EUC-H, Adobe Song Std;}.cls-4{font-size:50px;}.cls-5{font-size:40px;}.cls-6{font-size:20px;}</style></defs><title>画板 1</title><line class="cls-1" x1="251.93" y1="250.29" x2="357.47" y2="144.75"/><line class="cls-1" x1="252.11" y1="488.11" x2="252.11" y2="27.23"/><polygon points="252.11 13.11 260.24 33.01 252.11 28.29 243.98 33.01 252.11 13.11"/><line class="cls-1" x1="15.11" y1="250.11" x2="475.99" y2="250.11"/><polygon points="490.11 250.11 470.21 258.24 474.93 250.11 470.21 241.98 490.11 250.11"/><circle class="cls-2" cx="251.61" cy="249.61" r="149"/><line class="cls-1" x1="357.61" y1="144.61" x2="357.61" y2="249.61"/><path class="cls-1" d="M272.61,229.61a28.89,28.89,0,0,1,8,20"/><text class="cls-3" transform="translate(276.61 241.68)">θ</text><text class="cls-4" transform="translate(293.61 188.28)">r</text><text></text><text class="cls-5" transform="translate(293.61 274.48)">x<tspan class="cls-6" x="18.64" y="0">1</tspan></text><text class="cls-5" transform="translate(360.61 204.48)">y<tspan class="cls-6" x="18.08" y="0">1</tspan></text></svg>